# xmcd
#
# Track frame offsets:
# 150
# 15710
# 30897
# 41240
# 57065
# 76130
# 89360
# 98650
# 106717
# 120510
# 132147
# 143180
# 158132
# 173727
# 185640
# 198357
# 213452
# 228682
# 245905
# 259037
#
# Disc length: 3601 seconds
#
# Revision: 0
# Processed by: cddbd v1.4PL0 Copyright (c) Steve Scherf et al.
# Submitted via: Audion 3.0.2 (http://www.panic.com/audion/)
#
DISCID=080e0f14
DTITLE=Marc Bolan and T.Rex - The Best Of '72-'77 Volume Two [CD1]
DYEAR=1900
DGENRE=
TTITLE0=Rock On
TTITLE1=The Slider
TTITLE2=Baby Boomerang
TTITLE3=Buick Mackane
TTITLE4=Main Man
TTITLE5=Tenement Lady
TTITLE6=Brokenhearted Blues
TTITLE7=Country Honey
TTITLE8=Electric Slim and The Factory Hen
TTITLE9=Highway Knees
TTITLE10=Explosive Mouth
TTITLE11=Liquid Gang
TTITLE12=Interstellar Soul
TTITLE13=Solid Baby
TTITLE14=Space Boss
TTITLE15=Zip Gun Boogie
TTITLE16=Think Zinc
TTITLE17=Sensation Boulevard
TTITLE18=Dreamy Lady
TTITLE19=Ride My Wheels
EXTD=
EXTT0=
EXTT1=
EXTT2=
EXTT3=
EXTT4=
EXTT5=
EXTT6=
EXTT7=
EXTT8=
EXTT9=
EXTT10=
EXTT11=
EXTT12=
EXTT13=
EXTT14=
EXTT15=
EXTT16=
EXTT17=
EXTT18=
EXTT19=
PLAYORDER=
